<?xml version="1.0" standalone="no"?>
<!DOCTYPE svg PUBLIC "-//W3C//DTD SVG 20010904//EN"
 "http://www.w3.org/TR/2001/REC-SVG-20010904/DTD/svg10.dtd">
<svg version="1.0" xmlns="http://www.w3.org/2000/svg"
 width="985.000000pt" height="759.000000pt" viewBox="0 0 985.000000 759.000000"
 preserveAspectRatio="xMidYMid meet">

<g transform="translate(0.000000,759.000000) scale(0.100000,-0.100000)"
fill="#000000" stroke="none">
<path d="M6590 6989 c0 -5 5 -9 10 -9 6 0 10 -21 10 -47 0 -60 7 -53 11 11 3
40 0 50 -14 52 -9 1 -17 -2 -17 -7z"/>
<path d="M6672 6945 c1 -47 2 -52 7 -25 8 48 38 54 44 8 l4 -33 -1 35 c-1 28
-5 35 -21 35 -11 0 -23 9 -27 20 -3 11 -6 -7 -6 -40z"/>
<path d="M7741 6947 c-1 -58 -1 -58 27 -55 24 3 27 7 27 38 0 28 -4 35 -20 35
-11 0 -23 9 -27 20 -3 11 -6 -5 -7 -38z m47 -20 c2 -19 -1 -27 -13 -27 -19 0
-30 24 -21 46 9 23 31 11 34 -19z"/>
<path d="M8930 6986 c0 -8 -10 -16 -22 -18 -19 -2 -23 -9 -23 -38 0 -31 3 -35
28 -38 27 -3 27 -2 27 52 0 31 -2 56 -5 56 -3 0 -5 -6 -5 -14z m0 -56 c0 -23
-4 -30 -20 -30 -14 0 -20 7 -20 23 0 27 7 37 27 37 8 0 13 -12 13 -30z"/>
<path d="M8062 6974 c-7 -8 -8 -14 -2 -14 5 0 10 -16 10 -35 0 -19 3 -35 8
-35 7 0 8 88 0 95 -1 1 -9 -3 -16 -11z"/>
<path d="M9124 6973 c-8 -3 -8 -15 0 -43 13 -51 21 -51 20 0 -1 44 -4 49 -20
43z"/>
<path d="M9305 6971 c-3 -5 -1 -12 5 -16 6 -4 8 -11 5 -16 -9 -13 4 -49 17
-49 6 0 6 6 -2 15 -10 12 -10 22 -2 39 10 23 7 36 -9 36 -4 0 -10 -4 -14 -9z"/>
<path d="M6763 6930 c0 -25 2 -35 4 -22 2 12 2 32 0 45 -2 12 -4 2 -4 -23z"/>
<path d="M6794 6958 c-4 -7 2 -18 14 -26 28 -18 29 -36 2 -29 -11 3 -18 1 -14
-4 9 -15 41 -10 48 6 4 10 -3 20 -19 27 -30 13 -33 33 -5 25 11 -3 20 -1 20 4
0 13 -38 11 -46 -3z"/>
<path d="M6905 6960 c-4 -7 2 -9 19 -4 15 3 26 2 26 -4 0 -5 -12 -13 -26 -16
-35 -9 -28 -40 9 -44 27 -3 28 -2 25 35 -2 30 -7 39 -25 41 -11 2 -24 -2 -28
-8z m45 -45 c0 -8 -9 -15 -20 -15 -20 0 -26 11 -13 23 12 13 33 7 33 -8z"/>
<path d="M6981 6913 c1 -32 3 -50 6 -41 2 9 14 18 26 20 18 2 22 10 22 38 0
31 -3 35 -27 38 -28 3 -28 3 -27 -55z m49 17 c0 -23 -4 -30 -20 -30 -14 0 -20
7 -20 23 0 27 7 37 27 37 8 0 13 -12 13 -30z"/>
<path d="M7061 6913 c1 -32 3 -50 6 -40 2 9 13 17 23 17 25 0 40 29 29 58 -6
15 -17 22 -34 22 -24 0 -25 -2 -24 -57z m51 30 c7 -27 -2 -43 -23 -43 -13 0
-19 7 -19 23 0 39 33 54 42 20z"/>
<path d="M7190 6960 c-11 -8 -8 -9 13 -4 35 8 36 -11 1 -20 -35 -9 -28 -40 9
-44 27 -3 28 -2 25 35 -3 40 -20 52 -48 33z m40 -45 c0 -8 -9 -15 -20 -15 -20
0 -26 11 -13 23 12 13 33 7 33 -8z"/>
<path d="M7263 6930 c0 -25 2 -35 4 -22 2 12 2 32 0 45 -2 12 -4 2 -4 -23z"/>
<path d="M7302 6927 l1 -42 4 38 c3 29 8 37 21 35 12 -3 16 -12 14 -30 -1 -15
2 -29 8 -33 6 -4 10 8 10 29 0 25 4 36 15 36 15 0 18 -9 16 -45 -1 -17 0 -18
8 -4 6 8 8 25 5 36 -5 18 -14 21 -55 21 l-49 1 2 -42z"/>
<path d="M7437 6963 c-13 -13 -7 -32 13 -38 11 -3 20 -11 20 -17 0 -6 -9 -8
-20 -5 -11 3 -20 1 -20 -5 0 -5 10 -8 22 -6 30 4 35 34 8 41 -11 3 -20 11 -20
17 0 7 8 10 20 7 11 -3 18 -1 14 4 -6 11 -28 12 -37 2z"/>
<path d="M7540 6951 c-15 -29 4 -63 33 -59 18 2 22 10 22 38 0 28 -4 36 -22
38 -14 2 -26 -4 -33 -17z m45 -21 c0 -28 -29 -40 -38 -15 -9 22 3 46 22 43 10
-2 16 -13 16 -28z"/>
<path d="M7621 6926 l2 -41 6 35 c8 48 38 54 44 8 l4 -33 -1 35 c-1 31 -4 35
-28 36 -26 1 -28 -1 -27 -40z"/>
<path d="M7824 6956 c-3 -8 -4 -25 -2 -38 2 -17 9 -23 28 -23 22 0 25 4 25 35
0 29 -4 36 -23 38 -13 2 -24 -3 -28 -12z m46 -26 c0 -20 -5 -30 -15 -30 -18 0
-30 24 -21 45 10 28 36 17 36 -15z"/>
<path d="M7912 6958 c-25 -25 -6 -68 30 -68 22 0 35 45 18 65 -15 18 -32 19
-48 3z m43 -28 c0 -16 -6 -26 -18 -28 -19 -4 -32 20 -23 44 9 25 41 13 41 -16z"/>
<path d="M7997 6963 c-13 -13 -7 -31 13 -36 11 -3 20 -11 20 -17 0 -8 -8 -10
-21 -7 -16 4 -19 3 -11 -5 14 -14 42 -3 42 16 0 8 -9 18 -20 21 -26 8 -26 29
0 22 11 -3 18 -1 14 4 -6 11 -28 12 -37 2z"/>
<path d="M8113 6930 c0 -25 2 -35 4 -22 2 12 2 32 0 45 -2 12 -4 2 -4 -23z"/>
<path d="M8153 6930 c0 -25 2 -35 4 -22 2 12 2 32 0 45 -2 12 -4 2 -4 -23z"/>
<path d="M8181 6960 c10 -6 15 -20 14 -35 -2 -14 1 -27 6 -31 10 -6 12 36 3
60 -3 9 -14 16 -23 16 -15 -1 -15 -1 0 -10z"/>
<path d="M8230 6955 c-18 -22 2 -65 30 -65 13 0 18 -4 14 -11 -3 -6 -15 -8
-27 -5 -15 4 -17 2 -8 -7 22 -22 46 6 49 57 3 43 1 46 -21 46 -14 0 -30 -7
-37 -15z m45 -25 c0 -28 -29 -40 -38 -15 -9 22 3 46 22 43 10 -2 16 -13 16
-28z"/>
<path d="M8348 6950 c14 -56 14 -73 1 -81 -11 -7 -11 -9 -1 -9 13 0 34 42 45
90 6 23 5 22 -5 -2 -14 -34 -21 -35 -34 -5 -6 12 -8 15 -6 7z"/>
<path d="M8420 6955 c-24 -29 8 -75 44 -62 30 12 14 77 -20 77 -6 0 -17 -7
-24 -15z m45 -25 c0 -31 -31 -39 -40 -11 -8 26 2 43 23 39 11 -2 17 -13 17
-28z"/>
<path d="M8504 6930 c1 -30 5 -35 29 -38 26 -3 27 -2 25 40 l-1 43 -4 -37 c-3
-29 -9 -38 -23 -38 -14 0 -20 9 -23 33 -4 32 -4 32 -3 -3z"/>
<path d="M8581 6928 c2 -34 3 -37 6 -13 2 17 12 36 21 43 14 11 13 12 -6 12
-19 0 -22 -5 -21 -42z"/>
<path d="M8665 6959 c-4 -6 -4 -13 0 -17 3 -3 10 0 15 7 13 21 42 5 38 -21 -3
-26 -38 -38 -38 -14 0 9 -4 16 -8 16 -10 0 -9 -46 1 -56 4 -4 7 -2 7 4 0 7 9
12 19 12 22 0 35 30 26 60 -7 22 -49 28 -60 9z"/>
<path d="M8752 6928 c1 -41 1 -41 5 -8 3 19 10 38 16 42 8 5 6 8 -5 8 -15 0
-18 -8 -16 -42z"/>
<path d="M8800 6950 c-14 -26 3 -60 31 -60 24 0 33 21 25 55 -8 31 -41 34 -56
5z m48 -23 c3 -21 -1 -27 -16 -27 -22 0 -34 22 -25 45 9 25 38 13 41 -18z"/>
<path d="M8964 6930 c1 -30 5 -35 29 -38 26 -3 27 -2 25 40 l-1 43 -4 -37 c-3
-29 -9 -38 -23 -38 -14 0 -20 9 -23 33 -4 32 -4 32 -3 -3z"/>
<path d="M9044 6956 c-16 -41 20 -86 48 -58 6 6 0 8 -16 5 -22 -5 -26 -2 -26
20 0 32 16 43 37 25 14 -11 16 -11 11 2 -6 20 -47 25 -54 6z"/>
<path d="M9173 6930 c0 -25 2 -35 4 -22 2 12 2 32 0 45 -2 12 -4 2 -4 -23z"/>
<path d="M9202 6965 c0 -5 5 -26 13 -45 l13 -35 17 39 c9 21 14 40 11 43 -3 3
-8 -6 -12 -21 -8 -33 -17 -33 -31 2 -6 15 -11 23 -11 17z"/>
<path d="M9283 6930 c0 -25 2 -35 4 -22 2 12 2 32 0 45 -2 12 -4 2 -4 -23z"/>
<path d="M9358 6950 c14 -56 14 -73 1 -81 -11 -7 -11 -9 -1 -9 13 0 34 42 45
90 6 23 5 22 -5 -2 -14 -34 -21 -35 -34 -5 -6 12 -8 15 -6 7z"/>
<path d="M7203 6785 c0 -33 2 -45 4 -27 2 18 2 45 0 60 -2 15 -4 0 -4 -33z"/>
<path d="M9023 6785 c0 -33 2 -45 4 -27 2 18 2 45 0 60 -2 15 -4 0 -4 -33z"/>
<path d="M6593 6780 c0 -30 2 -43 4 -27 3 21 10 27 29 27 17 0 24 -6 24 -19 0
-11 5 -23 10 -26 6 -4 10 13 10 44 0 31 -4 51 -11 51 -6 0 -9 -9 -6 -20 4 -17
0 -20 -23 -20 -22 0 -30 5 -33 23 -2 12 -4 -3 -4 -33z"/>
<path d="M7342 6814 c-7 -8 -8 -14 -2 -14 5 0 10 -16 10 -35 0 -19 3 -35 8
-35 7 0 8 88 0 95 -1 1 -9 -3 -16 -11z"/>
<path d="M8420 6810 c-10 -7 -11 -10 -2 -10 7 0 12 -14 12 -35 0 -19 3 -35 8
-35 7 0 8 77 1 85 -3 2 -11 0 -19 -5z"/>
<path d="M6694 6796 c-11 -30 0 -61 24 -62 20 -2 20 -1 2 3 -16 3 -20 11 -18
31 2 16 9 27 18 27 8 0 14 -6 13 -12 -2 -7 2 -13 8 -13 6 0 9 8 7 18 -4 22
-46 29 -54 8z"/>
<path d="M6772 6768 c1 -41 1 -41 5 -8 3 19 10 38 16 42 8 5 6 8 -5 8 -15 0
-18 -8 -16 -42z"/>
<path d="M6822 6798 c-26 -26 -6 -69 33 -67 17 1 16 2 -5 8 -30 8 -36 54 -7
59 10 2 17 -3 17 -12 0 -9 5 -16 10 -16 7 0 7 6 0 20 -12 23 -30 26 -48 8z"/>
<path d="M6935 6769 c11 -31 12 -45 4 -55 -8 -9 -8 -14 -1 -14 11 0 47 98 39
106 -2 3 -8 -7 -11 -21 -7 -29 -26 -25 -26 6 0 10 -4 19 -10 19 -5 0 -3 -19 5
-41z"/>
<path d="M7000 6790 c-15 -28 4 -62 33 -58 39 5 31 78 -9 78 -7 0 -18 -9 -24
-20z m45 -20 c0 -15 -6 -26 -16 -28 -19 -3 -31 21 -22 43 9 25 38 13 38 -15z"/>
<path d="M7084 6770 c1 -30 5 -35 29 -38 26 -3 27 -2 25 40 l-1 43 -4 -37 c-3
-29 -9 -38 -23 -38 -14 0 -20 9 -23 33 -4 32 -4 32 -3 -3z"/>
<path d="M7243 6770 c0 -25 2 -35 4 -22 2 12 2 32 0 45 -2 12 -4 2 -4 -23z"/>
<path d="M7274 6798 c-4 -7 2 -18 14 -26 28 -19 28 -36 1 -29 -15 4 -19 3 -12
-4 14 -14 45 -8 50 8 3 7 -7 18 -21 24 -31 14 -35 34 -6 26 11 -3 18 -1 14 4
-8 13 -31 11 -40 -3z"/>
<path d="M7431 6798 c-1 -9 4 -29 9 -44 7 -19 7 -30 -1 -40 -7 -9 -8 -14 -1
-14 5 0 17 21 26 47 19 56 20 80 2 38 -14 -30 -15 -29 -29 15 -4 12 -6 12 -6
-2z"/>
<path d="M7499 6786 c-15 -31 3 -59 35 -54 17 2 21 10 21 38 0 29 -4 36 -22
38 -16 2 -26 -4 -34 -22z m49 -19 c3 -21 -1 -27 -16 -27 -22 0 -34 22 -25 45
9 25 38 13 41 -18z"/>
<path d="M7583 6775 c2 -36 5 -40 30 -43 26 -3 27 -2 25 40 l-1 43 -4 -38 c-6
-50 -35 -48 -45 3 l-6 35 1 -40z"/>
<path d="M7661 6768 c2 -34 3 -37 6 -13 2 17 12 36 21 43 14 11 13 12 -6 12
-19 0 -22 -5 -21 -42z"/>
<path d="M7748 6798 c9 -9 15 -9 24 0 9 9 7 12 -12 12 -19 0 -21 -3 -12 -12z"/>
<path d="M7800 6795 c-26 -31 13 -82 44 -56 19 16 21 42 4 59 -16 16 -33 15
-48 -3z m45 -25 c0 -16 -6 -26 -18 -28 -19 -4 -32 20 -23 44 9 25 41 13 41
-16z"/>
<path d="M7920 6795 c-15 -18 -10 -45 11 -58 20 -12 53 -2 43 14 -5 8 -9 8
-14 -1 -12 -19 -40 -4 -40 20 0 29 30 38 46 15 13 -18 14 -18 14 3 0 16 -6 22
-24 22 -13 0 -29 -7 -36 -15z"/>
<path d="M8000 6790 c-14 -26 3 -60 31 -60 24 0 33 21 25 55 -8 31 -41 34 -56
5z m45 -20 c0 -15 -6 -26 -16 -28 -19 -3 -31 21 -22 43 9 25 38 13 38 -15z"/>
<path d="M8097 6803 c-13 -12 -7 -23 18 -35 33 -15 32 -32 -1 -25 -16 3 -22 1
-16 -5 13 -13 44 -7 49 9 3 7 -7 18 -21 24 -29 14 -24 33 6 23 14 -4 18 -2 14
5 -8 12 -39 15 -49 4z"/>
<path d="M8277 6803 c-15 -14 -6 -31 18 -37 15 -4 23 -11 19 -17 -3 -6 -15 -8
-27 -5 -14 3 -17 2 -10 -5 14 -14 45 -8 50 8 3 7 -7 18 -21 24 -31 14 -35 34
-6 26 11 -3 20 -1 20 4 0 10 -33 12 -43 2z"/>
<path d="M8352 6798 c-26 -26 -6 -69 33 -67 17 1 16 2 -5 8 -18 5 -25 14 -25
31 0 30 31 40 39 13 4 -15 5 -15 3 2 -3 23 -27 31 -45 13z"/>
<path d="M8508 6790 c14 -60 14 -73 -1 -82 -13 -7 -17 -23 -16 -66 1 -31 3
-49 6 -39 2 9 7 17 10 17 4 0 15 -8 26 -17 20 -18 20 -18 3 9 -11 17 -13 28
-7 33 6 3 11 11 11 17 0 6 -9 3 -20 -7 -20 -18 -20 -17 -20 12 0 17 6 33 14
36 14 5 50 96 41 105 -2 2 -7 -7 -11 -22 -8 -32 -17 -33 -30 -3 -6 12 -8 15
-6 7z"/>
<path d="M8580 6795 c-24 -29 8 -75 44 -62 30 12 14 77 -20 77 -6 0 -17 -7
-24 -15z m45 -25 c0 -31 -31 -39 -40 -11 -8 26 2 43 23 39 11 -2 17 -13 17
-28z"/>
<path d="M8662 6772 c-2 -42 -1 -43 26 -40 24 3 27 7 28 41 1 33 -9 44 -12 14
0 -7 -2 -20 -2 -29 -3 -35 -31 -19 -35 20 l-4 37 -1 -43z"/>
<path d="M8741 6768 c2 -34 3 -37 6 -13 2 17 12 36 21 43 14 11 13 12 -6 12
-19 0 -22 -5 -21 -42z"/>
<path d="M8830 6795 c-7 -8 -10 -25 -6 -40 5 -19 13 -25 34 -25 26 0 28 3 29
40 1 35 -2 40 -22 40 -12 0 -28 -7 -35 -15z m43 -14 c6 -26 -7 -45 -27 -38
-16 6 -22 38 -9 50 12 13 31 7 36 -12z"/>
<path d="M8916 6801 c-3 -5 3 -7 14 -4 11 3 20 1 20 -5 0 -5 -9 -12 -20 -15
-12 -3 -20 -14 -20 -26 0 -16 6 -21 26 -21 23 0 25 3 22 37 -3 37 -28 57 -42
34z m34 -46 c0 -8 -7 -15 -15 -15 -8 0 -15 7 -15 15 0 8 7 15 15 15 8 0 15 -7
15 -15z"/>
<path d="M8993 6770 c0 -25 2 -35 4 -22 2 12 2 32 0 45 -2 12 -4 2 -4 -23z"/>
<path d="M9065 6769 c11 -31 12 -45 4 -55 -8 -9 -8 -14 -1 -14 11 0 47 98 39
106 -2 3 -8 -7 -11 -21 -7 -29 -26 -25 -26 6 0 10 -4 19 -10 19 -5 0 -3 -19 5
-41z"/>
<path d="M7750 6771 c0 -16 12 -41 20 -41 4 0 5 11 2 25 -4 23 -22 36 -22 16z"/>
<path d="M8201 6724 c0 -11 3 -14 6 -6 3 7 2 16 -1 19 -3 4 -6 -2 -5 -13z"/>
<path d="M7010 6685 c0 -8 -9 -15 -20 -15 -28 0 -48 -44 -30 -65 7 -8 23 -15
36 -15 22 0 24 4 24 55 0 30 -2 55 -5 55 -3 0 -5 -7 -5 -15z m-5 -55 c0 -28
-29 -40 -38 -15 -9 22 3 46 22 43 10 -2 16 -13 16 -28z"/>
<path d="M7494 6651 c0 -27 4 -52 8 -56 3 -3 6 19 6 49 -1 31 -4 56 -8 56 -4
0 -7 -22 -6 -49z"/>
<path d="M7823 6645 c0 -33 2 -45 4 -27 2 18 2 45 0 60 -2 15 -4 0 -4 -33z"/>
<path d="M8288 6679 c-2 -6 -2 -28 0 -50 3 -28 9 -39 21 -38 10 0 11 2 4 6
-15 5 -18 60 -4 65 5 2 3 8 -4 15 -9 8 -15 9 -17 2z"/>
<path d="M7684 6670 c-29 -12 -37 -26 -30 -56 5 -20 12 -25 34 -22 25 3 27 7
27 46 1 45 1 45 -31 32z m16 -40 c0 -19 -5 -30 -14 -30 -20 0 -29 16 -21 40
10 32 35 25 35 -10z"/>
<path d="M6587 6663 c-11 -11 -8 -75 3 -68 6 3 10 19 10 35 0 15 6 31 13 33 8
4 6 6 -4 6 -9 1 -19 -2 -22 -6z"/>
<path d="M6641 6656 c-21 -25 -10 -61 19 -63 25 -3 25 -3 3 7 -31 13 -29 30 3
30 19 0 25 5 22 17 -4 23 -31 28 -47 9z m39 -6 c0 -5 -9 -10 -21 -10 -11 0
-17 5 -14 10 3 6 13 10 21 10 8 0 14 -4 14 -10z"/>
<path d="M6711 6627 l2 -42 6 35 c4 22 12 36 24 38 14 3 17 -4 18 -35 l2 -38
6 35 c4 22 12 35 21 35 9 0 18 -13 22 -35 l6 -35 -1 40 -2 40 -52 2 -53 3 1
-43z"/>
<path d="M6843 6630 c0 -25 2 -35 4 -22 2 12 2 32 0 45 -2 12 -4 2 -4 -23z"/>
<path d="M6872 6630 c-1 -22 3 -40 8 -40 6 0 10 16 10 35 0 24 5 35 15 35 10
0 15 -11 15 -35 0 -19 5 -35 10 -35 11 0 13 24 4 58 -5 16 -14 22 -34 22 -24
0 -27 -4 -28 -40z"/>
<path d="M7044 6656 c-11 -30 0 -61 24 -62 18 -1 19 -1 2 3 -13 3 -20 12 -20
28 0 27 14 40 32 29 8 -5 6 -10 -8 -15 -17 -7 -17 -8 4 -8 17 -1 23 4 20 17
-4 22 -46 29 -54 8z"/>
<path d="M7122 6628 c1 -41 1 -41 5 -8 3 19 10 38 16 42 8 5 6 8 -5 8 -15 0
-18 -8 -16 -42z"/>
<path d="M7177 6663 c-13 -13 -7 -31 13 -36 11 -3 20 -11 20 -17 0 -7 -8 -10
-20 -7 -11 3 -20 1 -20 -4 0 -5 11 -9 25 -9 31 0 35 35 5 45 -26 8 -26 29 0
22 11 -3 18 -1 14 4 -6 11 -28 12 -37 2z"/>
<path d="M7347 6663 c-13 -12 -7 -23 18 -35 33 -15 32 -32 -1 -25 -16 3 -22 1
-16 -5 13 -13 44 -7 49 9 3 7 -7 18 -21 24 -29 14 -24 33 6 23 14 -4 18 -2 14
5 -8 12 -39 15 -49 4z"/>
<path d="M7424 6656 c-16 -43 20 -86 49 -57 9 9 5 11 -13 9 -17 -2 -25 3 -28
16 -6 28 14 42 34 25 15 -12 17 -12 12 1 -6 20 -47 25 -54 6z"/>
<path d="M7528 6663 c6 -2 12 -20 12 -39 0 -19 5 -34 11 -34 6 0 8 7 5 16 -3
9 -6 27 -6 40 0 16 -5 24 -17 23 -11 0 -13 -3 -5 -6z"/>
<path d="M7580 6650 c-15 -28 4 -60 33 -59 l22 2 -22 4 c-18 3 -23 11 -23 34
0 19 5 29 15 29 18 0 20 -16 3 -23 -7 -3 -3 -6 10 -6 24 -1 28 9 10 27 -18 18
-36 15 -48 -8z"/>
<path d="M7742 6632 c-2 -42 -1 -43 26 -40 22 2 28 8 30 36 2 18 -1 32 -7 32
-6 0 -10 -3 -10 -7 4 -27 -3 -53 -15 -53 -10 0 -16 13 -19 38 l-4 37 -1 -43z"/>
<path d="M7862 6658 c-26 -26 -6 -69 33 -67 17 1 16 2 -5 8 -30 8 -36 54 -7
59 10 2 17 -3 17 -12 0 -9 5 -16 10 -16 7 0 7 6 0 20 -12 23 -30 26 -48 8z"/>
<path d="M7965 6655 c16 -51 17 -77 4 -86 -11 -7 -11 -9 -1 -9 13 0 34 41 46
90 5 21 4 21 -8 -4 l-13 -30 -17 30 c-10 16 -14 20 -11 9z"/>
<path d="M8040 6655 c-15 -18 -5 -65 14 -65 29 0 46 13 46 34 0 41 -36 60 -60
31z m45 -25 c0 -15 -6 -26 -16 -28 -19 -3 -31 21 -22 43 9 25 38 13 38 -15z"/>
<path d="M8124 6630 c1 -30 5 -35 29 -38 26 -3 27 -2 26 40 -2 43 -2 43 -8 8
-8 -48 -38 -54 -44 -8 l-4 33 1 -35z"/>
<path d="M8201 6628 c2 -34 3 -37 6 -13 2 17 12 36 21 43 14 11 13 12 -6 12
-19 0 -22 -5 -21 -42z"/>
<path d="M8346 6661 c-3 -5 3 -7 14 -4 27 7 25 -10 -2 -22 -32 -14 -29 -39 5
-43 27 -3 28 -2 25 35 -3 37 -28 57 -42 34z m34 -46 c0 -8 -7 -15 -15 -15 -8
0 -15 7 -15 15 0 8 7 15 15 15 8 0 15 -7 15 -15z"/>
<path d="M8416 6655 c-4 -10 3 -20 19 -27 34 -15 32 -32 -2 -23 -21 5 -25 4
-17 -5 7 -7 20 -10 30 -8 27 5 30 35 5 43 -12 3 -21 11 -21 16 0 6 9 7 21 4
15 -5 19 -4 15 4 -10 16 -43 13 -50 -4z"/>
<path d="M8570 6651 c0 -11 9 -23 20 -26 31 -10 24 -28 -7 -20 -21 5 -25 4
-17 -5 7 -7 20 -10 30 -8 27 5 30 35 5 43 -12 3 -21 11 -21 16 0 6 9 7 21 4
15 -5 19 -4 15 4 -12 19 -46 13 -46 -8z"/>
<path d="M7275 6589 c-4 -6 -5 -12 -2 -15 2 -3 7 2 10 11 7 17 1 20 -8 4z"/>
<path d="M7320 6236 c-30 -24 -158 -119 -285 -211 -716 -524 -905 -662 -954
-697 l-54 -38 59 0 59 0 165 131 c91 72 318 253 505 402 187 149 391 311 453
360 97 77 121 99 110 97 -2 -1 -28 -20 -58 -44z"/>
<path d="M870 6185 c-15 -17 -6 -33 26 -45 13 -5 24 -16 24 -25 0 -18 -31 -20
-48 -3 -9 9 -12 9 -12 0 0 -14 44 -27 59 -17 22 13 11 43 -19 54 -16 5 -30 15
-30 21 0 18 29 23 48 9 15 -13 16 -12 3 4 -16 21 -35 22 -51 2z"/>
<path d="M1272 6138 l1 -53 4 44 4 44 28 -41 c15 -23 31 -39 34 -35 4 3 6 27
5 52 -1 44 -2 44 -5 9 -5 -47 -15 -48 -39 -3 -10 19 -22 35 -26 35 -5 0 -7
-24 -6 -52z"/>
<path d="M1718 6177 c-7 -22 7 -80 20 -83 7 -1 8 0 2 3 -12 6 -13 60 -1 65 5
2 3 8 -4 15 -10 9 -14 9 -17 0z"/>
<path d="M945 6170 c-4 -6 3 -10 14 -10 25 0 27 6 6 13 -8 4 -17 2 -20 -3z"/>
<path d="M1006 6161 c-3 -5 3 -7 14 -4 22 6 28 -12 8 -20 -10 -4 -10 -6 0 -6
6 -1 12 -8 12 -17 0 -12 -6 -15 -26 -10 -17 5 -23 3 -19 -4 3 -5 17 -10 31
-10 23 0 25 3 22 37 -3 37 -28 57 -42 34z"/>
<path d="M1087 6163 c-3 -5 5 -8 18 -8 13 0 21 3 18 8 -2 4 -10 7 -18 7 -8 0
-16 -3 -18 -7z"/>
<path d="M1175 6145 c-25 -21 -27 -25 -11 -25 10 0 25 -8 32 -17 7 -10 14 -13
14 -7 0 6 -7 17 -15 24 -14 12 -14 15 1 31 23 26 15 23 -21 -6z"/>
<path d="M1375 6160 c-3 -5 0 -7 9 -4 8 3 21 2 27 -2 9 -5 7 -10 -7 -15 -18
-7 -18 -8 -1 -8 22 -1 17 -25 -5 -29 -9 -2 -18 5 -21 15 -4 14 -5 13 -6 -4 -1
-19 4 -23 29 -23 25 0 30 4 30 24 0 13 -3 31 -6 40 -7 18 -39 22 -49 6z"/>
<path d="M1440 6165 c0 -5 5 -17 10 -25 5 -8 10 -10 10 -5 0 6 -5 17 -10 25
-5 8 -10 11 -10 5z"/>
<path d="M1523 6130 c0 -25 2 -35 4 -22 2 12 2 32 0 45 -2 12 -4 2 -4 -23z"/>
<path d="M1560 6155 c-17 -20 -9 -48 18 -60 26 -12 29 -25 5 -26 -13 0 -14 -2
-4 -6 13 -5 41 21 41 38 0 4 -12 7 -27 6 -24 -2 -28 2 -28 23 0 22 4 25 30 23
22 -2 26 0 15 7 -21 14 -36 12 -50 -5z"/>
<path d="M1646 6161 c-3 -5 3 -7 14 -4 22 6 28 -12 8 -20 -10 -4 -10 -6 0 -6
17 -1 15 -31 -2 -31 -8 0 -17 8 -19 18 -4 13 -5 11 -6 -5 -1 -18 4 -23 25 -23
23 0 25 3 22 37 -3 37 -28 57 -42 34z"/>
<path d="M1773 6130 c0 -25 2 -35 4 -22 2 12 2 32 0 45 -2 12 -4 2 -4 -23z"/>
<path d="M1804 6156 c-12 -31 0 -61 25 -61 13 0 25 6 27 13 1 7 0 8 -3 2 -2
-5 -13 -10 -24 -10 -14 0 -19 7 -19 25 0 29 27 45 42 24 8 -12 9 -11 5 1 -5
20 -46 25 -53 6z"/>
<path d="M1881 6126 l2 -41 6 35 c8 48 38 54 44 8 l4 -33 -1 35 c-1 31 -4 35
-28 36 -26 1 -28 -1 -27 -40z"/>
<path d="M1071 6137 c-3 -31 39 -61 53 -38 4 5 -2 7 -12 4 -12 -3 -22 3 -29
19 -7 13 -12 19 -12 15z"/>
<path d="M1472 6124 c-7 -8 -10 -19 -6 -26 5 -7 10 -3 16 12 10 28 7 33 -10
14z"/>
<path d="M960 6100 c0 -5 5 -10 11 -10 5 0 7 5 4 10 -3 6 -8 10 -11 10 -2 0
-4 -4 -4 -10z"/>
<path d="M1850 5768 c20 -18 120 -105 224 -193 104 -88 232 -197 285 -242 95
-82 97 -83 151 -82 51 0 53 1 35 14 -512 378 -728 534 -695 503z"/>
<path d="M5390 5027 c0 -53 2 -57 23 -57 29 0 47 18 47 46 0 34 -11 54 -29 54
-14 -1 -14 -2 2 -11 31 -18 16 -79 -21 -79 -10 0 -13 12 -11 45 2 24 0 47 -4
51 -4 4 -7 -18 -7 -49z"/>
<path d="M5491 5036 c-27 -33 11 -88 40 -59 6 6 1 9 -13 9 -18 -1 -23 4 -23
24 0 16 6 26 19 28 14 3 17 0 13 -12 -4 -9 -2 -16 4 -16 17 0 6 34 -12 38 -9
1 -21 -4 -28 -12z"/>
<path d="M5567 5043 c-15 -14 -6 -31 18 -37 15 -4 23 -11 19 -17 -3 -6 -15 -9
-25 -6 -11 3 -17 1 -13 -4 9 -15 41 -10 48 6 4 10 -3 20 -19 27 -30 13 -33 33
-5 25 11 -3 18 -1 14 4 -6 11 -28 12 -37 2z"/>
<path d="M5640 5035 c-24 -29 14 -85 41 -58 9 9 7 11 -9 7 -14 -4 -22 0 -27
15 -8 28 3 44 26 38 11 -3 17 -1 13 4 -8 14 -30 11 -44 -6z"/>
<path d="M5711 5008 c2 -34 3 -37 6 -13 2 17 12 36 21 43 14 11 13 12 -6 12
-19 0 -22 -5 -21 -42z"/>
<path d="M5763 5010 c0 -25 2 -35 4 -22 2 12 2 32 0 45 -2 12 -4 2 -4 -23z"/>
<path d="M5801 4993 c1 -32 3 -50 6 -41 2 9 14 18 26 20 18 2 22 10 22 38 0
31 -3 35 -27 38 -28 3 -28 3 -27 -55z m44 17 c0 -16 -6 -26 -17 -28 -14 -3
-18 3 -18 28 0 25 4 31 18 28 11 -2 17 -12 17 -28z"/>
<path d="M5877 5038 c4 -7 8 -21 9 -30 3 -35 4 -38 15 -38 6 0 7 5 2 13 -11
18 -10 51 2 59 5 4 0 8 -13 8 -16 0 -21 -4 -15 -12z"/>
<path d="M5933 5010 c0 -25 2 -35 4 -22 2 12 2 32 0 45 -2 12 -4 2 -4 -23z"/>
<path d="M5970 5036 c-18 -23 -8 -61 17 -64 30 -4 53 39 33 63 -16 19 -34 19
-50 1z m44 -11 c8 -21 -3 -45 -20 -45 -8 0 -17 7 -20 15 -8 21 2 45 20 45 7 0
16 -7 20 -15z"/>
<path d="M6052 5008 l1 -43 4 38 c5 46 33 53 33 8 0 -17 5 -33 10 -36 11 -7
14 34 4 59 -3 9 -17 16 -30 16 -22 0 -24 -4 -22 -42z"/>
<path d="M2511 4988 c2 -52 2 -52 8 -13 l6 40 25 -37 c14 -21 28 -38 33 -38 4
0 6 24 6 53 -2 51 -2 51 -8 12 l-6 -40 -25 37 c-14 21 -28 38 -32 38 -5 0 -7
-24 -7 -52z"/>
<path d="M2620 5012 c0 -6 9 -8 20 -5 11 3 20 1 20 -5 0 -5 -12 -13 -26 -16
-35 -9 -28 -40 9 -44 27 -3 28 -2 25 35 -2 31 -7 39 -25 41 -13 2 -23 -1 -23
-6z m40 -42 c0 -12 -28 -25 -36 -17 -9 9 6 27 22 27 8 0 14 -5 14 -10z"/>
<path d="M2763 4980 c0 -25 2 -35 4 -22 2 12 2 32 0 45 -2 12 -4 2 -4 -23z"/>
<path d="M2800 4999 c-7 -11 -9 -23 -7 -26 3 -2 8 5 12 17 9 29 40 22 40 -10
0 -20 -5 -25 -23 -24 -26 1 -17 -12 13 -19 18 -4 18 -5 -5 -15 -14 -6 -18 -11
-9 -11 25 -1 39 20 39 60 0 24 -5 39 -16 43 -25 10 -33 7 -44 -15z"/>
<path d="M2885 5010 c-3 -5 0 -7 9 -4 8 3 21 2 27 -2 9 -5 7 -10 -7 -15 -18
-7 -18 -8 -1 -8 22 -1 17 -25 -5 -29 -9 -2 -19 5 -22 15 -4 15 -5 15 -3 -2 2
-14 11 -21 30 -23 23 -3 27 0 27 22 0 13 -3 31 -6 40 -7 18 -39 22 -49 6z"/>
<path d="M2955 5010 c3 -5 12 -7 20 -3 21 7 19 13 -6 13 -11 0 -18 -4 -14 -10z"/>
<path d="M3013 4980 c0 -25 2 -35 4 -22 2 12 2 32 0 45 -2 12 -4 2 -4 -23z"/>
<path d="M3052 5008 c-20 -20 -14 -56 9 -63 12 -4 25 -3 30 2 6 6 1 9 -13 9
-18 -1 -23 4 -23 24 0 32 31 39 40 10 4 -12 9 -19 12 -17 8 9 -17 47 -30 47
-7 0 -18 -5 -25 -12z"/>
<path d="M3133 4980 c0 -25 2 -35 4 -22 2 12 2 32 0 45 -2 12 -4 2 -4 -23z"/>
<path d="M3165 5006 c10 -7 16 -20 13 -28 -4 -8 -2 -21 3 -29 6 -10 9 -7 9 13
0 38 -10 58 -28 58 -13 0 -13 -2 3 -14z"/>
<path d="M2700 4975 c0 -5 4 -16 9 -23 6 -11 10 -10 15 4 3 9 4 19 1 22 -3 3
-5 -1 -5 -9 0 -11 -2 -11 -10 1 -5 8 -10 11 -10 5z"/>
<path d="M2970 4955 c0 -8 4 -15 10 -15 5 0 7 7 4 15 -4 8 -8 15 -10 15 -2 0
-4 -7 -4 -15z"/>
<path d="M5035 4469 c-159 -121 -326 -246 -369 -279 l-79 -60 54 0 54 0 146
128 c80 70 208 181 284 247 163 140 212 185 205 184 -3 0 -135 -99 -295 -220z"/>
<path d="M3284 4648 c21 -18 172 -142 335 -275 l296 -242 59 -1 59 0 -99 68
c-54 38 -198 138 -319 223 -330 233 -374 263 -331 227z"/>
<path d="M4050 3917 c0 -9 -10 -17 -22 -19 -19 -2 -23 -9 -23 -38 0 -32 3 -35
30 -38 30 -3 30 -3 30 47 -1 28 -4 53 -8 57 -4 4 -7 0 -7 -9z m0 -57 c0 -21
-24 -28 -35 -10 -8 14 3 30 21 30 8 0 14 -9 14 -20z"/>
<path d="M4290 3920 c0 -5 5 -10 10 -10 6 0 10 5 10 10 0 6 -4 10 -10 10 -5 0
-10 -4 -10 -10z"/>
<path d="M4405 3920 c-3 -5 -1 -10 4 -10 6 0 11 5 11 10 0 6 -2 10 -4 10 -3 0
-8 -4 -11 -10z"/>
<path d="M3775 3870 c0 -27 3 -50 8 -50 4 0 7 9 7 19 0 14 8 21 28 23 21 2 27
8 27 28 0 21 -5 25 -35 28 l-35 3 0 -51z m53 23 c-2 -10 -10 -18 -18 -18 -8 0
-16 8 -18 18 -2 12 3 17 18 17 15 0 20 -5 18 -17z"/>
<path d="M4242 3908 c-6 -6 -9 -16 -7 -22 2 -6 6 -23 9 -38 4 -16 13 -28 21
-28 13 0 13 3 3 20 -10 15 -10 25 -2 38 14 22 -7 47 -24 30z"/>
<path d="M4442 3904 c-7 -8 -8 -15 -2 -19 6 -3 10 -19 10 -36 0 -20 5 -29 16
-29 12 0 14 3 6 13 -11 13 -11 34 0 52 10 17 -16 34 -30 19z"/>
<path d="M4616 3873 c-9 -25 -13 -49 -10 -52 4 -3 9 0 11 7 3 6 15 12 28 12
13 0 25 -6 28 -12 2 -7 7 -11 10 -8 10 9 -27 100 -39 100 -7 0 -19 -21 -28
-47z m33 -12 c-15 -5 -22 6 -14 19 6 9 10 9 16 -1 5 -8 4 -15 -2 -18z"/>
<path d="M3864 3860 c-1 -22 3 -40 7 -40 5 0 9 14 9 30 0 20 5 30 15 30 8 0
15 5 15 10 0 6 -10 10 -22 10 -20 0 -23 -6 -24 -40z"/>
<path d="M3924 3886 c-11 -29 1 -61 23 -64 29 -4 48 30 33 58 -12 23 -48 27
-56 6z m46 -26 c0 -11 -6 -20 -14 -20 -18 0 -29 16 -21 30 11 18 35 11 35 -10z"/>
<path d="M4082 3863 c3 -35 6 -38 36 -41 31 -3 32 -2 32 37 0 49 -17 55 -22 9
-2 -18 -7 -33 -13 -33 -5 0 -11 15 -13 33 -2 17 -8 32 -13 32 -6 0 -9 -17 -7
-37z"/>
<path d="M4172 3888 c-26 -26 0 -77 33 -64 22 8 18 25 -5 19 -16 -4 -20 0 -20
17 0 19 4 21 27 15 23 -5 25 -4 14 9 -16 19 -33 20 -49 4z"/>
<path d="M4290 3860 c0 -22 5 -40 10 -40 6 0 10 18 10 40 0 22 -4 40 -10 40
-5 0 -10 -18 -10 -40z"/>
<path d="M4334 3864 c15 -46 31 -54 40 -20 3 13 9 31 12 40 3 9 1 16 -5 16 -6
0 -11 -9 -11 -19 0 -28 -18 -36 -22 -9 -2 12 -9 23 -15 25 -10 4 -9 -4 1 -33z"/>
<path d="M4405 3860 c0 -22 3 -40 8 -40 4 0 7 18 7 40 0 22 -4 40 -8 40 -4 0
-8 -18 -7 -40z"/>
<path d="M4490 3891 c0 -4 5 -22 11 -40 8 -24 8 -35 -1 -46 -10 -12 -10 -15 3
-15 16 0 54 96 43 108 -4 3 -9 -4 -13 -16 -7 -27 -23 -29 -23 -2 0 11 -4 20
-10 20 -5 0 -10 -4 -10 -9z"/>
<path d="M4700 3845 c0 -30 5 -55 10 -55 6 0 10 7 10 15 0 8 7 15 15 15 8 0
19 9 25 20 15 28 -4 60 -35 60 -24 0 -25 -3 -25 -55z m50 15 c0 -11 -7 -20
-15 -20 -8 0 -15 9 -15 20 0 11 7 20 15 20 8 0 15 -9 15 -20z"/>
<path d="M4780 3845 c0 -30 5 -55 10 -55 6 0 10 6 10 13 0 7 10 17 22 22 44
19 30 75 -18 75 -22 0 -24 -4 -24 -55z m48 13 c-2 -13 -7 -23 -13 -23 -5 0
-11 10 -13 23 -2 15 2 22 13 22 11 0 15 -7 13 -22z"/>
<path d="M4176 3543 c-8 -27 -33 -106 -55 -178 -22 -71 -85 -278 -141 -459
-55 -180 -99 -330 -97 -332 2 -2 66 164 142 369 76 204 161 434 190 510 l52
137 -37 0 c-37 0 -39 -2 -54 -47z"/>
<path d="M3503 2193 c-22 -8 -14 -43 12 -53 14 -5 25 -16 25 -25 0 -18 -31
-20 -48 -3 -9 9 -12 9 -12 0 0 -14 44 -27 59 -17 20 11 11 42 -14 53 -14 6
-25 16 -25 21 0 17 20 23 35 11 9 -7 15 -8 15 -2 0 8 -26 25 -33 21 -1 0 -8
-3 -14 -6z"/>
<path d="M3574 2156 c-16 -41 20 -86 47 -59 6 6 1 9 -13 9 -17 -1 -24 5 -26
22 -4 26 25 42 40 21 8 -12 9 -11 5 1 -5 20 -46 25 -53 6z"/>
<path d="M3651 2128 c2 -34 3 -37 6 -13 2 17 12 36 21 43 14 11 13 12 -6 12
-19 0 -22 -5 -21 -42z"/>
<path d="M3700 2150 c-15 -28 4 -60 33 -59 l22 2 -22 4 c-18 3 -23 11 -23 34
0 24 4 30 18 27 9 -2 16 -10 15 -16 -2 -7 2 -12 7 -12 14 0 13 13 -2 28 -18
18 -36 15 -48 -8z"/>
<path d="M3782 2158 c-26 -26 -6 -69 33 -67 17 1 16 2 -5 8 -30 8 -36 54 -7
59 10 2 17 -3 17 -12 0 -9 5 -16 10 -16 7 0 7 6 0 20 -12 23 -30 26 -48 8z"/>
<path d="M3851 2128 c2 -43 2 -43 8 -8 8 48 38 54 44 8 l4 -33 -1 35 c-1 30
-5 35 -28 38 -27 3 -28 2 -27 -40z"/>
<path d="M3937 2163 c-13 -12 -7 -23 18 -35 33 -15 32 -32 -1 -25 -16 3 -22 1
-16 -5 13 -13 44 -7 49 9 3 7 -7 18 -21 24 -29 14 -24 33 6 23 14 -4 18 -2 14
5 -8 12 -39 15 -49 4z"/>
<path d="M3045 1989 c-126 -38 -258 -76 -293 -85 -113 -30 -58 -25 139 12 107
19 232 42 279 50 122 21 120 20 120 60 0 19 -3 34 -7 33 -5 0 -111 -32 -238
-70z"/>
<path d="M3543 1688 c-28 -90 -94 -300 -147 -467 -93 -292 -118 -392 -61 -239
16 40 64 165 107 278 44 113 88 228 98 255 16 44 113 290 127 323 4 8 -6 12
-34 12 l-38 0 -52 -162z"/>
<path d="M4016 1768 c44 -46 146 -150 226 -233 417 -428 406 -420 148 -114
-86 101 -202 239 -259 307 l-102 122 -47 0 -47 0 81 -82z"/>
<path d="M1620 1725 c0 -32 2 -56 4 -54 8 7 10 98 3 105 -4 4 -7 -19 -7 -51z"/>
<path d="M1800 1727 c0 -61 9 -69 51 -47 27 15 24 90 -4 90 -7 0 -7 -4 1 -12
25 -25 8 -78 -26 -78 -10 0 -13 12 -11 45 2 24 0 47 -4 51 -4 4 -7 -18 -7 -49z"/>
<path d="M2022 1768 c-20 -20 -14 -35 18 -47 37 -12 41 -41 6 -41 -13 0 -27 5
-29 10 -3 6 -4 5 -3 -2 2 -7 16 -13 32 -13 22 0 30 5 32 21 2 16 -4 24 -27 32
-17 6 -31 16 -31 22 0 18 29 23 48 9 15 -13 16 -12 3 4 -16 20 -32 22 -49 5z"/>
<path d="M1680 1735 c-26 -31 13 -82 44 -56 19 16 21 42 4 59 -16 16 -33 15
-48 -3z m45 -25 c0 -29 -32 -41 -41 -16 -9 24 4 48 23 44 12 -2 18 -12 18 -28z"/>
<path d="M1902 1741 c-22 -14 -11 -65 15 -69 29 -4 48 30 33 58 -11 21 -27 25
-48 11z m42 -16 c8 -21 -3 -45 -20 -45 -8 0 -17 7 -20 15 -8 21 2 45 20 45 7
0 16 -7 20 -15z"/>
<path d="M2104 1736 c-16 -41 20 -86 48 -58 6 6 0 8 -16 5 -23 -5 -26 -2 -26
26 0 24 4 31 19 31 11 0 22 -5 24 -10 3 -6 4 -5 3 2 -4 19 -45 22 -52 4z"/>
<path d="M2175 1741 c-9 -16 9 -20 23 -5 10 12 10 14 -2 14 -8 0 -17 -4 -21
-9z"/>
<path d="M2229 1726 c-14 -31 2 -57 35 -55 19 1 18 2 -4 8 -14 4 -25 12 -24
19 1 7 2 19 3 27 2 21 28 19 35 -2 4 -14 4 -14 3 2 -3 30 -35 31 -48 1z"/>
<path d="M2310 1736 c-17 -22 -5 -66 20 -66 10 0 21 4 24 8 3 5 -5 8 -17 8
-29 -1 -32 47 -3 52 14 3 17 0 13 -12 -4 -9 -2 -16 4 -16 17 0 6 34 -12 38 -9
1 -22 -4 -29 -12z"/>
<path d="M2381 1706 l2 -41 6 35 c8 48 38 54 44 8 l4 -33 -1 35 c-1 31 -4 35
-28 36 -26 1 -28 -1 -27 -40z"/>
<path d="M2170 1703 c0 -5 5 -15 10 -23 7 -12 9 -10 7 8 -1 19 -17 33 -17 15z"/>
<path d="M4370 895 c-15 -18 -1 -40 31 -50 10 -4 19 -13 19 -21 0 -17 -31 -18
-49 -1 -11 10 -13 9 -9 -3 3 -9 17 -15 34 -15 22 0 30 5 32 21 2 16 -4 24 -27
32 -17 6 -31 16 -31 22 0 17 29 23 45 10 9 -7 15 -8 15 -2 0 9 -22 22 -40 22
-4 0 -13 -7 -20 -15z"/>
<path d="M4533 855 c0 -33 2 -45 4 -27 2 18 2 45 0 60 -2 15 -4 0 -4 -33z"/>
<path d="M4853 855 c0 -33 2 -45 4 -27 2 18 2 45 0 60 -2 15 -4 0 -4 -33z"/>
<path d="M5013 903 c-22 -8 -14 -43 12 -53 34 -13 34 -44 0 -38 -13 3 -22 1
-19 -3 8 -14 40 -10 53 5 13 15 9 21 -34 51 -16 11 -17 16 -8 26 10 10 15 9
28 -1 8 -7 15 -8 15 -2 0 8 -26 25 -33 21 -1 0 -8 -3 -14 -6z"/>
<path d="M4721 881 c-44 -12 -55 -63 -16 -77 22 -9 48 3 39 18 -6 9 -9 9 -12
0 -5 -15 -28 -16 -37 -2 -10 16 5 50 21 50 8 0 14 -7 14 -17 0 -21 9 -12 15
16 2 11 3 21 2 20 -1 -1 -13 -4 -26 -8z"/>
<path d="M4454 866 c-16 -41 20 -86 48 -58 6 6 0 8 -16 5 -23 -5 -26 -2 -26
21 0 30 27 46 42 25 8 -12 9 -11 5 1 -5 20 -46 25 -53 6z"/>
<path d="M4562 870 c10 -6 15 -20 13 -35 -1 -14 2 -28 6 -31 10 -6 12 36 3 60
-3 9 -14 16 -23 16 -15 -1 -15 -1 1 -10z"/>
<path d="M4610 860 c-15 -28 4 -60 33 -59 l22 2 -22 4 c-18 3 -23 11 -23 35 0
25 3 29 20 25 11 -3 18 -1 14 4 -9 16 -33 10 -44 -11z"/>
<path d="M4772 843 c-2 -39 0 -43 22 -43 27 0 42 15 26 25 -5 3 -10 1 -10 -4
0 -6 -6 -11 -14 -11 -10 0 -16 13 -19 38 l-4 37 -1 -42z"/>
<path d="M4892 868 c-27 -27 -2 -74 35 -65 14 4 14 5 -4 6 -27 1 -40 20 -22
32 11 7 11 9 1 9 -7 0 -10 5 -7 10 10 15 35 12 35 -5 0 -8 5 -15 10 -15 7 0 7
6 0 20 -12 23 -30 26 -48 8z"/>
<path d="M5090 865 c-15 -18 -10 -45 12 -59 12 -7 21 -7 28 0 8 8 4 10 -12 10
-18 -1 -23 4 -23 24 0 19 5 25 22 24 12 0 20 3 17 8 -8 13 -30 9 -44 -7z"/>
<path d="M5161 838 c2 -34 3 -37 6 -13 2 17 12 36 21 43 14 11 13 12 -6 12
-19 0 -22 -5 -21 -42z"/>
<path d="M5214 866 c-11 -30 0 -61 24 -62 19 -1 19 -1 2 3 -16 3 -20 11 -17
31 2 15 10 27 18 27 8 0 13 -6 12 -12 -2 -7 2 -13 8 -13 6 0 9 8 7 18 -4 22
-46 29 -54 8z"/>
<path d="M5290 860 c-15 -28 4 -60 33 -59 l22 2 -22 4 c-18 3 -23 11 -23 35 0
25 3 29 20 25 11 -3 18 -1 14 4 -9 16 -33 10 -44 -11z"/>
<path d="M5368 861 c4 -10 7 -11 10 -3 2 7 10 12 18 12 9 0 14 -12 14 -36 0
-19 4 -33 9 -29 9 5 6 49 -5 67 -3 4 -16 7 -28 6 -17 -2 -22 -7 -18 -17z"/>
<path d="M2610 495 c0 -32 2 -56 4 -54 8 7 10 98 3 105 -4 4 -7 -19 -7 -51z"/>
<path d="M3070 536 c0 -8 -10 -16 -22 -18 -19 -2 -23 -9 -23 -38 0 -31 3 -35
28 -38 27 -3 27 -2 27 52 0 31 -2 56 -5 56 -3 0 -5 -6 -5 -14z m0 -56 c0 -23
-4 -30 -20 -30 -14 0 -20 7 -20 23 0 27 7 37 27 37 8 0 13 -12 13 -30z"/>
<path d="M3283 543 c-22 -8 -15 -43 11 -53 13 -5 27 -14 31 -19 10 -18 -26
-25 -49 -11 -19 12 -20 12 -7 -3 17 -21 45 -22 60 -3 13 15 9 21 -34 51 -29
20 -7 42 26 25 23 -11 23 -10 5 4 -21 17 -24 17 -43 9z"/>
<path d="M2660 530 c12 -8 12 -11 -2 -27 -16 -17 -15 -20 2 -43 11 -14 20 -20
20 -14 0 5 -5 15 -11 21 -8 8 -8 17 1 32 12 23 6 41 -13 41 -7 0 -6 -4 3 -10z"/>
<path d="M2700 500 c-15 -28 4 -60 33 -59 l22 2 -22 4 c-18 3 -23 11 -23 34 0
24 4 30 18 27 9 -2 16 -10 15 -16 -2 -7 2 -12 7 -12 14 0 13 13 -2 28 -18 18
-36 15 -48 -8z"/>
<path d="M2776 512 c-2 -4 -1 -14 5 -22 7 -13 9 -12 9 3 0 9 7 17 15 17 11 0
15 -11 15 -37 0 -20 3 -33 8 -29 4 4 7 20 7 34 0 17 6 28 17 30 13 2 18 -6 21
-32 l4 -36 -1 37 c-1 38 -1 38 -48 41 -26 1 -49 -1 -52 -6z"/>
<path d="M2903 480 c0 -25 2 -35 4 -22 2 12 2 32 0 45 -2 12 -4 2 -4 -23z"/>
<path d="M2941 476 l2 -41 6 35 c8 48 38 54 44 8 l4 -33 -1 35 c-1 31 -4 35
-28 36 -26 1 -28 -1 -27 -40z"/>
<path d="M3112 508 c-27 -27 -8 -70 31 -67 7 0 2 4 -11 10 -29 11 -27 52 2 57
14 3 17 0 13 -12 -4 -9 -2 -16 4 -16 16 0 6 34 -11 38 -9 1 -21 -3 -28 -10z"/>
<path d="M3181 478 c2 -35 3 -37 6 -13 3 17 9 36 15 43 8 9 6 12 -6 12 -12 0
-16 -9 -15 -42z"/>
<path d="M3354 496 c-3 -14 -4 -33 0 -41 6 -16 41 -21 50 -7 3 5 -5 8 -17 8
-15 -1 -23 6 -25 22 -4 26 25 42 40 21 8 -12 9 -11 5 1 -2 8 -13 16 -25 18
-16 2 -23 -3 -28 -22z"/>
<path d="M3431 478 c2 -35 3 -37 6 -13 3 17 9 36 15 43 8 9 6 12 -6 12 -12 0
-16 -9 -15 -42z"/>
<path d="M3480 500 c-15 -27 4 -60 33 -59 20 1 20 2 2 6 -26 7 -34 20 -27 45
3 13 11 18 23 15 11 -3 17 -1 13 4 -9 16 -33 10 -44 -11z"/>
<path d="M3560 500 c-15 -28 4 -60 33 -59 l22 2 -22 4 c-18 3 -23 11 -23 34 0
24 4 30 18 27 9 -2 16 -10 15 -16 -2 -7 2 -12 7 -12 14 0 13 13 -2 28 -18 18
-36 15 -48 -8z"/>
<path d="M3636 511 c-4 -5 -2 -12 4 -16 5 -3 10 -1 10 4 0 6 6 11 14 11 10 0
16 -14 19 -37 l4 -38 -1 40 c-1 33 -5 41 -23 43 -11 2 -24 -1 -27 -7z"/>
</g>
</svg>
